<?xml version="1.0" encoding="utf-8"?>
<!-- Generator: Adobe Illustrator 19.0.0, SVG Export Plug-In . SVG Version: 6.00 Build 0)  -->
<svg version="1.1" xmlns="http://www.w3.org/2000/svg" xmlns:xlink="http://www.w3.org/1999/xlink" x="0px" y="0px"
	 viewBox="0 0 612 792" style="enable-background:new 0 0 612 792;" xml:space="preserve">
<style type="text/css">
	.st0{fill:#E5C975;stroke:#C69959;stroke-width:3;stroke-miterlimit:10;}
	.st1{fill:#CFAC5B;}
	.st2{fill:#E5DCD3;}
	.st3{fill:#F9EBC0;}
</style>
<g id="Layer_1">
	<path id="XMLID_1_" class="st0" d="M66,396.5c-3.8,35.3-19.9,187.4,83,271c63.7,51.8,141.1,51.4,163,51c27.6-0.5,107.7-6.1,171-65
		c93.7-87.2,79-220.8,75-257c-15.9-143.9-123.7-328-256-323C167.7,78.6,79.8,266.2,66,396.5z"/>
</g>
<g id="Layer_2">
	<path id="XMLID_2_" class="st1" d="M317,711c31.4-2.9,110.9-10.2,172-73c63.9-65.6,66.4-149.5,68-201c1.1-37.8-7.6-89.1-12-89
		c-2.3,0.1-3.6,14.6-4,19c-2.2,23-13.6,141.2-68,214c-58.1,77.7-170.7,111.2-208,118c-5.2,0.9-24.2,4.1-24,7
		C241.2,710.4,286,713.9,317,711z"/>
	<path id="XMLID_3_" class="st2" d="M793,665"/>
	<path id="XMLID_4_" class="st3" d="M98.9,353c1,0.3,2.7-6.6,12-25c35.7-70.6,82-111.3,139-198c6.6-10,13.7-21.3,11-24
		c-5.3-5.3-46.9,22.9-75,51.2C108.7,235,94.9,351.7,98.9,353z"/>
	<g id="XMLID_5_">
	</g>
	<g id="XMLID_6_">
	</g>
	<g id="XMLID_7_">
	</g>
	<g id="XMLID_8_">
	</g>
	<g id="XMLID_9_">
	</g>
	<g id="XMLID_10_">
	</g>
</g>
</svg>
