<?xml version="1.0" encoding="utf-8"?>
<!-- Generator: Adobe Illustrator 19.0.0, SVG Export Plug-In . SVG Version: 6.00 Build 0)  -->
<svg version="1.1" xmlns="http://www.w3.org/2000/svg" xmlns:xlink="http://www.w3.org/1999/xlink" x="0px" y="0px"
	 viewBox="-54 72.8 501.5 648.2" style="enable-background:new -54 72.8 501.5 648.2;" xml:space="preserve">
<style type="text/css">
	.st0{clip-path:url(#SVGID_2_);fill:#B81D1D;stroke:#B81D1D;stroke-width:3;stroke-miterlimit:10;}
	.st1{clip-path:url(#SVGID_2_);}
	.st2{fill:#F3E4D2;stroke:#E5D6C7;stroke-width:2.1;stroke-miterlimit:10;}
	.st3{fill:#F0DBC5;}
	.st4{fill:#E5DCD3;}
	.st5{fill:#F7EEE4;}
	.st6{fill:#E8CF76;stroke:#AE9B59;stroke-width:3;stroke-miterlimit:10;}
	.st7{fill:#E8CF76;stroke:#AE9B59;stroke-width:2.6388;stroke-miterlimit:10;}
	.st8{fill:#E8CF76;}
	.st9{fill:#B81D1D;stroke:#971D1D;stroke-width:3;stroke-miterlimit:10;}
	.st10{fill:#B81D1D;stroke:#B81D1D;stroke-width:3;stroke-miterlimit:10;}
</style>
<g id="Layer_1">
</g>
<g id="Layer_8">
	<g>
		<defs>
			<rect id="SVGID_1_" x="-45.9" y="171" width="477" height="526.8"/>
		</defs>
		<clipPath id="SVGID_2_">
			<use xlink:href="#SVGID_1_"  style="overflow:visible;"/>
		</clipPath>
		<ellipse class="st0" cx="183.6" cy="268.6" rx="13.7" ry="19.9"/>
		<g class="st1">
			<g id="Layer_1_1_">
				<path id="XMLID_1_" class="st2" d="M461.2,461.9c-2.7,24.7-13.9,131.2,58.1,189.7c44.6,36.3,98.8,36,114.1,35.7
					c19.3-0.3,75.4-4.3,119.7-45.5c65.6-61,55.3-154.6,52.5-179.9C794.5,361.1,719,232.3,626.4,235.8
					C532.4,239.3,470.9,370.7,461.2,461.9z"/>
				<path id="XMLID_8_" class="st2" d="M14.6,472.4C12,497.1,0.7,603.5,72.7,662.1c44.6,36.3,98.8,36,114.1,35.7
					c19.3-0.3,75.4-4.3,119.7-45.5c65.6-61,55.3-154.6,52.5-179.9c-11.1-100.7-86.6-229.6-179.2-226.1
					C85.8,249.8,24.3,381.2,14.6,472.4z"/>
			</g>
			<g id="Layer_2">
				<path id="XMLID_2_" class="st3" d="M636.9,685.5c22-2,77.6-7.1,120.4-51.1c44.7-45.9,46.5-104.7,47.6-140.7
					c0.8-26.5-5.3-62.4-8.4-62.3c-1.6,0.1-2.5,10.2-2.8,13.3c-1.5,16.1-9.5,98.8-47.6,149.8c-40.7,54.4-119.5,77.8-145.6,82.6
					c-3.6,0.6-16.9,2.9-16.8,4.9C583.9,685.1,615.2,687.5,636.9,685.5z"/>
				<path id="XMLID_3_" class="st4" d="M970.1,649.8"/>
				<path id="XMLID_4_" class="st5" d="M484.2,431.4c0.7,0.2,1.9-4.6,8.4-17.5c25-49.4,57.4-77.9,97.3-138.6
					c4.6-7,9.6-14.9,7.7-16.8c-3.7-3.7-32.8,16-52.5,35.8C491.1,348.8,481.5,430.5,484.2,431.4z"/>
				<path id="XMLID_7_" class="st3" d="M190.3,696c22-2,77.6-7.1,120.4-51.1c44.7-45.9,46.5-104.7,47.6-140.7
					c0.8-26.5-5.3-62.4-8.4-62.3c-1.6,0.1-2.5,10.2-2.8,13.3c-1.5,16.1-9.5,98.8-47.6,149.8c-40.7,54.4-119.5,77.8-145.6,82.6
					c-3.6,0.6-16.9,2.9-16.8,4.9C137.3,695.6,168.6,698,190.3,696z"/>
				<path id="XMLID_6_" class="st5" d="M37.6,441.9c0.7,0.2,1.9-4.6,8.4-17.5c25-49.4,57.4-77.9,97.3-138.6c4.6-7,9.6-14.9,7.7-16.8
					c-3.7-3.7-32.8,16-52.5,35.8C44.5,359.3,34.9,441,37.6,441.9z"/>
				<g id="XMLID_86_">
				</g>
				<g id="XMLID_87_">
				</g>
				<g id="XMLID_88_">
				</g>
				<g id="XMLID_89_">
				</g>
				<g id="XMLID_90_">
				</g>
				<g id="XMLID_91_">
				</g>
			</g>
		</g>
	</g>
</g>
<g id="Layer_2_1_">
	<path class="st6" d="M292.1,309.8H76c-4.8-18.2-9.7-36.4-14.5-54.5c83.3-0.7,166.7-1.3,250-2C305,272.1,298.6,291,292.1,309.8z"/>
	<path class="st6" d="M200.1,304.1c1.3,2.4,8.8-0.4,37.2-3c15-1.4,19.3-0.9,31.4-1.1c12.5-0.2,16.2,1.8,21.4-0.9
		c3.1-1.6,5.2-3.8,6.4-5.3c6.4-15.5,12.7-32.4,18.5-50.8c6.5-20.4,11.5-39.8,15.5-57.7c-33.8,36.6-64.2,62.2-86,79
		C226,278.5,197.3,299.1,200.1,304.1z"/>
	<path class="st7" d="M300.3,275.1c2.2-6.3-10.3-11-28-29.4c-16.3-17-25-33.2-29.8-44.1c-2.6,11-8.1,27.5-21.7,44.5
		c-15,18.8-28,23.7-25.5,30.2C201.6,292.4,294.7,291.3,300.3,275.1z"/>
	<path class="st6" d="M172,305.1c-1.3,2.4-8.8-0.4-37.2-3c-15-1.4-19.3-0.9-31.4-1.1c-12.5-0.2-16.2,1.8-21.4-0.9
		c-3.1-1.6-5.2-3.8-6.4-5.3C69.2,279.4,63,262.4,57.1,244c-6.5-20.4-11.5-39.8-15.5-57.7c33.8,36.6,64.2,62.2,86,79
		C146.1,279.6,174.8,300.1,172,305.1z"/>
</g>
<g id="Layer_5">
	<path class="st7" d="M181.2,272.7c2.2-6.3-10.3-11-28-29.4c-16.3-17-25-33.2-29.8-44.1c-2.6,11-8.1,27.5-21.7,44.5
		c-15,18.8-28,23.7-25.5,30.2C82.6,290,175.6,289,181.2,272.7z"/>
</g>
<g id="Layer_4">
	<path class="st6" d="M101.3,297.3c2.4,3.9,11.1-0.6,37.2-3c21.5-2,21-0.1,52.8-2c26.3-1.6,26.5-2.9,43-3c20.9-0.2,29.9,3,31.7-0.7
		c2.8-5.8-17.3-18.8-34.5-35c-15.9-15-35-38-50.2-73.7c-7.1,15.9-19.3,40.1-39.8,65.7C119.4,273.2,97.3,290.6,101.3,297.3z"/>
	<ellipse class="st6" cx="180.8" cy="176.8" rx="7.3" ry="5.8"/>
	<ellipse class="st6" cx="330.5" cy="182.5" rx="7.3" ry="5.8"/>
	<ellipse class="st6" cx="41.6" cy="182.5" rx="7.3" ry="5.8"/>
</g>
<g id="Layer_3">
	<path class="st8" d="M290.2,308.5H76.9c-4.4-17-8.8-34-13.2-51c81.9-0.9,163.7-1.8,245.6-2.8C302.9,272.6,296.6,290.5,290.2,308.5z
		"/>
</g>
<g id="Layer_6">
	<ellipse class="st9" cx="183.6" cy="268.6" rx="13.7" ry="19.9"/>
	<ellipse class="st10" cx="180.8" cy="266.1" rx="13.7" ry="19.9"/>
</g>
</svg>
